<svg version="1.2" baseProfile="tiny-ps" xmlns="http://www.w3.org/2000/svg" viewBox="0 0 64 64" width="64" height="64">
	<title>New Project</title>
	<style>
		tspan { white-space:pre }
		.shp0 { fill: #ffffff } 
	</style>
	<path id="Layer 1" class="shp0" d="M13.64 33.03L43.26 61.63C43.69 62.04 44.17 62.24 44.72 62.24C45.27 62.24 45.76 62.04 46.19 61.63L49.36 58.56C49.79 58.15 50 57.68 50 57.15C50 56.62 49.79 56.15 49.36 55.74L24.38 31.62L49.36 7.5C49.79 7.1 50 6.62 50 6.09C50 5.56 49.79 5.09 49.36 4.68L46.19 1.61C45.76 1.2 45.27 1 44.72 1C44.17 1 43.69 1.2 43.26 1.61L13.64 30.21C13.21 30.62 13 31.09 13 31.62C13 32.15 13.21 32.62 13.64 33.03L13.64 33.03Z" />
</svg>