<svg version="1.2" baseProfile="tiny-ps" xmlns="http://www.w3.org/2000/svg" viewBox="0 0 64 64" width="64" height="64">
	<title>New Project</title>
	<style>
		tspan { white-space:pre }
		.shp0 { fill: #ffffff } 
	</style>
	<path id="Layer 2" class="shp0" d="M41.13 47.36C40.41 47.36 39.8 47.11 39.31 46.61L32 39.31L24.69 46.61C24.2 47.11 23.59 47.36 22.87 47.36C22.14 47.36 21.53 47.11 21.04 46.61L17.39 42.96C16.89 42.47 16.64 41.86 16.64 41.13C16.64 40.41 16.89 39.8 17.39 39.31L24.69 32L17.39 24.69C16.89 24.2 16.64 23.59 16.64 22.87C16.64 22.14 16.89 21.53 17.39 21.04L21.04 17.39C21.53 16.89 22.14 16.64 22.87 16.64C23.59 16.64 24.2 16.89 24.69 17.39L32 24.69L39.31 17.39C39.8 16.89 40.41 16.64 41.13 16.64C41.86 16.64 42.47 16.89 42.96 17.39L46.61 21.04C47.11 21.53 47.36 22.14 47.36 22.87C47.36 23.59 47.11 24.2 46.61 24.69L39.31 32L46.61 39.31C47.11 39.8 47.36 40.41 47.36 41.13C47.36 41.86 47.11 42.47 46.61 42.96L42.96 46.61C42.47 47.11 41.86 47.36 41.13 47.36ZM61.98 24.02C60.58 18.7 57.9 14.06 53.92 10.08C49.94 6.1 45.3 3.42 39.98 2.02C34.66 0.62 29.34 0.62 24.02 2.02C18.7 3.42 14.06 6.1 10.08 10.08C6.1 14.06 3.41 18.7 2.02 24.02C0.62 29.34 0.62 34.66 2.02 39.98C3.42 45.3 6.1 49.94 10.08 53.92C14.06 57.9 18.7 60.58 24.02 61.98C29.34 63.38 34.66 63.38 39.98 61.98C45.3 60.58 49.94 57.9 53.92 53.92C57.9 49.94 60.58 45.3 61.98 39.98C63.38 34.66 63.38 29.34 61.98 24.02Z" />
</svg>