<svg version="1.2" baseProfile="tiny-ps" xmlns="http://www.w3.org/2000/svg" viewBox="0 0 64 64" width="64" height="64">
	<title>New Project</title>
	<style>
		tspan { white-space:pre }
		.shp0 { fill: #ffffff } 
	</style>
	<path id="Layer 2" class="shp0" d="M49.32 36.4C48.8 36.91 48.2 37.17 47.5 37.17L37.17 37.17L37.17 47.5C37.17 48.2 36.91 48.81 36.4 49.32C35.89 49.83 35.28 50.08 34.58 50.08L29.42 50.08C28.72 50.08 28.11 49.83 27.6 49.32C27.09 48.81 26.83 48.2 26.83 47.5L26.83 37.17L16.5 37.17C15.8 37.17 15.19 36.91 14.68 36.4C14.17 35.89 13.92 35.28 13.92 34.58L13.92 29.42C13.92 28.72 14.17 28.11 14.68 27.6C15.19 27.09 15.8 26.83 16.5 26.83L26.83 26.83L26.83 16.5C26.83 15.8 27.09 15.2 27.6 14.68C28.11 14.17 28.72 13.92 29.42 13.92L34.58 13.92C35.28 13.92 35.89 14.17 36.4 14.68C36.91 15.2 37.17 15.8 37.17 16.5L37.17 26.83L47.5 26.83C48.2 26.83 48.8 27.09 49.32 27.6C49.83 28.11 50.08 28.72 50.08 29.42L50.08 34.58C50.08 35.28 49.83 35.89 49.32 36.4ZM47.56 5.16C42.81 2.39 37.62 1 32 1C26.38 1 21.19 2.39 16.44 5.16C11.69 7.93 7.93 11.69 5.16 16.44C2.39 21.19 1 26.38 1 32C1 37.62 2.39 42.81 5.16 47.56C7.93 52.31 11.69 56.07 16.44 58.84C21.19 61.61 26.38 63 32 63C37.62 63 42.81 61.61 47.56 58.84C52.31 56.07 56.07 52.31 58.84 47.56C61.61 42.81 63 37.62 63 32C63 26.38 61.61 21.19 58.84 16.44C56.07 11.69 52.31 7.93 47.56 5.16Z" />
</svg>