<svg version="1.2" baseProfile="tiny-ps" xmlns="http://www.w3.org/2000/svg" viewBox="0 0 64 64" width="64" height="64">
	<title>CirclePlus_icon-svg</title>
	<style>
		tspan { white-space:pre }
		.shp0 { fill: #ffff00;stroke: #000000 } 
	</style>
	<path id="Layer 2" fill-rule="evenodd" class="shp0" d="M58.84 16.44C61.61 21.19 63 26.38 63 32C63 37.62 61.61 42.81 58.84 47.56C56.07 52.31 52.31 56.07 47.56 58.84C42.81 61.61 37.62 63 32 63C26.38 63 21.19 61.61 16.44 58.84C11.69 56.07 7.93 52.31 5.16 47.56C2.39 42.81 1 37.62 1 32C1 26.38 2.39 21.19 5.16 16.44C7.93 11.69 11.69 7.93 16.44 5.16C21.19 2.39 26.38 1 32 1C37.62 1 42.81 2.39 47.56 5.16C52.31 7.93 56.07 11.69 58.84 16.44ZM50.08 34.58L50.08 29.42C50.08 28.72 49.83 28.11 49.32 27.6C48.8 27.09 48.2 26.83 47.5 26.83L37.17 26.83L37.17 16.5C37.17 15.8 36.91 15.2 36.4 14.68C35.89 14.17 35.28 13.92 34.58 13.92L29.42 13.92C28.72 13.92 28.11 14.17 27.6 14.68C27.09 15.2 26.83 15.8 26.83 16.5L26.83 26.83L16.5 26.83C15.8 26.83 15.19 27.09 14.68 27.6C14.17 28.11 13.92 28.72 13.92 29.42L13.92 34.58C13.92 35.28 14.17 35.89 14.68 36.4C15.19 36.91 15.8 37.17 16.5 37.17L26.83 37.17L26.83 47.5C26.83 48.2 27.09 48.81 27.6 49.32C28.11 49.83 28.72 50.08 29.42 50.08L34.58 50.08C35.28 50.08 35.89 49.83 36.4 49.32C36.91 48.81 37.17 48.2 37.17 47.5L37.17 37.17L47.5 37.17C48.2 37.17 48.8 36.91 49.32 36.4C49.83 35.89 50.08 35.28 50.08 34.58Z" />
</svg>