<svg version="1.2" baseProfile="tiny-ps" xmlns="http://www.w3.org/2000/svg" viewBox="0 0 64 64" width="64" height="64">
	<title>New Project</title>
	<style>
		tspan { white-space:pre }
		.shp0 { fill: #808080 } 
	</style>
	<path id="Layer 1" class="shp0" d="M11.48 57.76L11.48 52.52L6.24 52.52L6.24 48.14L9.96 44.42L19.58 54.04L15.86 57.76L11.48 57.76ZM36.97 20.48L14.79 42.66C14.6 42.85 14.37 42.95 14.1 42.95C13.5 42.95 13.2 42.65 13.2 42.05C13.2 41.77 13.29 41.54 13.48 41.35L35.66 19.17C35.85 18.98 36.09 18.88 36.36 18.88C36.96 18.88 37.26 19.18 37.26 19.78C37.26 20.06 37.16 20.29 36.97 20.48L36.97 20.48ZM1 45.98L1 63L18.02 63L52.07 28.95L35.05 11.93L1 45.98ZM61.49 12.13L51.87 2.56C50.83 1.52 49.59 1 48.14 1C46.67 1 45.44 1.52 44.46 2.56L37.67 9.31L54.69 26.33L61.49 19.54C62.49 18.53 63 17.3 63 15.86C63 14.44 62.49 13.2 61.49 12.13L61.49 12.13Z" />
</svg>