<svg xmlns="http://www.w3.org/2000/svg" viewBox="0 0 256 256" width="256" height="256">
	<style>
		tspan { white-space:pre }
		.shp0 { fill: #ffffff } 
	</style>
	<path id="Layer 3" class="shp0" d="M38.5 142C31.03 142 25 135.97 25 128.5C25 121.03 31.03 115 38.5 115C45.97 115 52 121.03 52 128.5C52 135.97 45.97 142 38.5 142ZM217.5 142C210.03 142 204 135.97 204 128.5C204 121.03 210.03 115 217.5 115C224.97 115 231 121.03 231 128.5C231 135.97 224.97 142 217.5 142ZM39 115L216 115L216 142L39 142L39 115ZM38.5 202C31.03 202 25 195.97 25 188.5C25 181.03 31.03 175 38.5 175C45.97 175 52 181.03 52 188.5C52 195.97 45.97 202 38.5 202ZM217.5 202C210.03 202 204 195.97 204 188.5C204 181.03 210.03 175 217.5 175C224.97 175 231 181.03 231 188.5C231 195.97 224.97 202 217.5 202ZM39 175L216 175L216 202L39 202L39 175ZM38.5 82C31.03 82 25 75.97 25 68.5C25 61.03 31.03 55 38.5 55C45.97 55 52 61.03 52 68.5C52 75.97 45.97 82 38.5 82ZM217.5 82C210.03 82 204 75.97 204 68.5C204 61.03 210.03 55 217.5 55C224.97 55 231 61.03 231 68.5C231 75.97 224.97 82 217.5 82ZM39 55L216 55L216 82L39 82L39 55Z" />
</svg>