<svg version="1.2" baseProfile="tiny-ps" xmlns="http://www.w3.org/2000/svg" viewBox="0 0 64 64" width="64" height="64">
	<title>New Project</title>
	<style>
		tspan { white-space:pre }
		.shp0 { fill: #000000 } 
	</style>
	<path id="Layer 2" class="shp0" d="M35.51 1.94C34.44 1.31 33.27 1 32 1C30.73 1 29.56 1.31 28.49 1.94C27.41 2.56 26.56 3.41 25.94 4.49C25.31 5.56 25 6.73 25 8C25 9.27 25.31 10.44 25.94 11.51C26.56 12.59 27.41 13.44 28.49 14.06C29.56 14.69 30.73 15 32 15C33.27 15 34.44 14.69 35.51 14.06C36.59 13.44 37.44 12.59 38.06 11.51C38.69 10.44 39 9.27 39 8C39 6.73 38.69 5.56 38.06 4.49C37.44 3.41 36.59 2.56 35.51 1.94ZM35.51 25.94C34.44 25.31 33.27 25 32 25C30.73 25 29.56 25.31 28.49 25.94C27.41 26.56 26.56 27.41 25.94 28.49C25.31 29.56 25 30.73 25 32C25 33.27 25.31 34.44 25.94 35.51C26.56 36.59 27.41 37.44 28.49 38.06C29.56 38.69 30.73 39 32 39C33.27 39 34.44 38.69 35.51 38.06C36.59 37.44 37.44 36.59 38.06 35.51C38.69 34.44 39 33.27 39 32C39 30.73 38.69 29.56 38.06 28.49C37.44 27.41 36.59 26.56 35.51 25.94ZM35.51 49.94C34.44 49.31 33.27 49 32 49C30.73 49 29.56 49.31 28.49 49.94C27.41 50.56 26.56 51.41 25.94 52.49C25.31 53.56 25 54.73 25 56C25 57.27 25.31 58.44 25.94 59.51C26.56 60.59 27.41 61.44 28.49 62.06C29.56 62.69 30.73 63 32 63C33.27 63 34.44 62.69 35.51 62.06C36.59 61.44 37.44 60.59 38.06 59.51C38.69 58.44 39 57.27 39 56C39 54.73 38.69 53.56 38.06 52.49C37.44 51.41 36.59 50.56 35.51 49.94Z" />
</svg>